<svg width="22" height="25" viewBox="0 0 22 25" fill="none" xmlns="http://www.w3.org/2000/svg">
<g clip-path="url(#clip0_24_2)">
<path d="M18.8571 16.4062H9.42857C8.99643 16.4062 8.64286 16.0547 8.64286 15.625V3.125C8.64286 2.69531 8.99643 2.34375 9.42857 2.34375H16.3085L19.6429 5.65918V15.625C19.6429 16.0547 19.2893 16.4062 18.8571 16.4062ZM9.42857 18.75H18.8571C20.5906 18.75 22 17.3486 22 15.625V5.65918C22 5.03906 21.7496 4.44336 21.3076 4.00391L17.9781 0.688477C17.5362 0.249023 16.9371 0 16.3134 0H9.42857C7.69509 0 6.28571 1.40137 6.28571 3.125V15.625C6.28571 17.3486 7.69509 18.75 9.42857 18.75ZM3.14286 6.25C1.40938 6.25 0 7.65137 0 9.375V21.875C0 23.5986 1.40938 25 3.14286 25H12.5714C14.3049 25 15.7143 23.5986 15.7143 21.875V20.3125H13.3571V21.875C13.3571 22.3047 13.0036 22.6562 12.5714 22.6562H3.14286C2.71071 22.6562 2.35714 22.3047 2.35714 21.875V9.375C2.35714 8.94531 2.71071 8.59375 3.14286 8.59375H4.71429V6.25H3.14286Z" fill="#C0C0C0" fill-opacity="0.8"/>
</g>
<defs>
<clipPath id="clip0_24_2">
<rect width="22" height="25" fill="white"/>
</clipPath>
</defs>
</svg>
