<svg width="36" height="24" viewBox="0 0 36 24" fill="none" xmlns="http://www.w3.org/2000/svg">
<path d="M1 3C1 1.89543 1.89543 1 3 1H32.2718C33.3763 1 34.2718 1.89543 34.2718 3V20.1729C34.2718 21.2775 33.3763 22.1729 32.2718 22.1729H3C1.89543 22.1729 1 21.2775 1 20.1729V3Z" fill="white" stroke="#D6D6D6" stroke-width="2"/>
<path d="M10.1818 16.3636L10.3182 12.6136L7.14773 14.625L6.32955 13.1932L9.67045 11.4545L6.32955 9.71591L7.14773 8.28409L10.3182 10.2955L10.1818 6.54545H11.8182L11.6818 10.2955L14.8523 8.28409L15.6705 9.71591L12.3295 11.4545L15.6705 13.1932L14.8523 14.625L11.6818 12.6136L11.8182 16.3636H10.1818ZM23.3818 16.3636L23.5182 12.6136L20.3477 14.625L19.5295 13.1932L22.8705 11.4545L19.5295 9.71591L20.3477 8.28409L23.5182 10.2955L23.3818 6.54545H25.0182L24.8818 10.2955L28.0523 8.28409L28.8705 9.71591L25.5295 11.4545L28.8705 13.1932L28.0523 14.625L24.8818 12.6136L25.0182 16.3636H23.3818Z" fill="black"/>
</svg>
